<?xml version="1.0" standalone="no"?><!DOCTYPE svg PUBLIC "-//W3C//DTD SVG 1.1//EN" "http://www.w3.org/Graphics/SVG/1.1/DTD/svg11.dtd"><svg class="icon" width="200px" height="200.00px" viewBox="0 0 1024 1024" version="1.1" xmlns="http://www.w3.org/2000/svg"><path fill="#333333" d="M989.866667 873.6768c0-0.068267 0-0.068267 0-0.136533-0.068267-145.066667-100.5568-251.392-251.050667-274.261333 51.4048-26.385067 86.596267-79.7696 86.596267-141.2096 0-87.517867-71.509333-158.754133-159.402667-158.754133-87.8592 0-159.402667 71.236267-159.402667 158.754133 0 63.658667 37.7856 118.6816 92.228267 143.940267-141.653333 27.7504-235.144533 131.720533-235.144533 271.6672l0.034133 0c0 45.192533 36.932267 81.988267 82.261333 82.056533 0.034133 0 0.068267 0 0.068267 0l461.4144 0c45.329067 0 82.261333-36.727467 82.397867-81.851733l0 0 0 0C989.866667 873.813333 989.866667 873.745067 989.866667 873.6768zM539.579733 458.069333c0-69.4272 56.695467-125.917867 126.429867-125.917867s126.429867 56.490667 126.429867 125.917867-56.695467 125.917867-126.429867 125.917867S539.579733 527.496533 539.579733 458.069333zM907.4688 922.9312 446.122667 922.9312c-27.272533 0-49.4592-22.1184-49.4592-49.2544L396.629333 873.6768c0-144.930133 115.165867-246.135467 280.098133-246.135467 164.9664 0 280.1664 101.205333 280.1664 246.135467C956.893867 900.8128 934.741333 922.9312 907.4688 922.9312zM347.204267 691.882667 116.5312 691.882667c-27.2384 0-49.425067-22.1184-49.425067-49.2544 0-144.930133 115.2-246.135467 280.132267-246.135467 65.1264 0 82.397867 0 120.183467 27.989333 7.304533 5.4272 16.861867 6.417067 23.313067 0 6.417067-6.417067 6.417067-16.7936 0-23.210667-23.313067-23.210667-46.4896-32.085333-76.868267-35.498667 48.913067-27.170133 82.0224-79.1552 82.0224-138.752 0-87.517867-71.543467-158.72-159.402667-158.72-87.893333 0-159.402667 71.202133-159.402667 158.72 0 63.658667 37.7856 118.6816 92.228267 143.9744C127.624533 398.677333 34.133333 502.6816 34.133333 642.594133c0 45.2608 36.9664 82.056533 82.397867 82.056533l230.7072 0c9.1136 0 16.4864-7.338667 16.4864-16.384S356.317867 691.882667 347.204267 691.882667zM210.0224 226.986667c0-69.4272 56.7296-125.917867 126.464-125.917867s126.395733 56.490667 126.395733 125.917867S406.186667 352.938667 336.452267 352.938667 210.0224 296.448 210.0224 226.986667z" /></svg>