<?xml version="1.0" standalone="no"?><!DOCTYPE svg PUBLIC "-//W3C//DTD SVG 1.1//EN" "http://www.w3.org/Graphics/SVG/1.1/DTD/svg11.dtd"><svg class="icon" width="200px" height="200.00px" viewBox="0 0 1024 1024" version="1.1" xmlns="http://www.w3.org/2000/svg"><path fill="#333333" d="M891.544269 170.705893h-166.236092v-65.880453c0-10.737552-8.705266-19.442818-19.442818-19.442817h-3.776c-10.737552 0-19.442818 8.705266-19.442817 19.442817v65.880453H341.353458v-65.880453c0-10.737552-8.705266-19.442818-19.442817-19.442817h-3.776c-10.737552 0-19.442818 8.705266-19.442818 19.442817v65.880453h-166.236092c-25.997094 0-47.072085 21.074991-47.072085 47.072086v673.765267c0 25.997094 21.074991 47.072085 47.072085 47.072085h759.088538c25.997094 0 47.072085-21.074991 47.072085-47.072085v-673.765267c0-25.997094-21.074991-47.072085-47.072085-47.072086z m4.41045 705.804985c0 10.737552-8.705266 19.442818-19.442818 19.442817h-729.023802c-10.737552 0-19.442818-8.705266-19.442818-19.442817v-449.835172h767.909438v449.835172z m0-492.496808h-767.909438v-151.203723c0-10.737552 8.705266-19.442818 19.442818-19.442818h151.203724v65.880453c0 10.737552 8.705266 19.442818 19.442818 19.442818h3.776c10.737552 0 19.442818-8.705266 19.442817-19.442818v-65.880453h341.293084v65.880453c0 10.737552 8.705266 19.442818 19.442817 19.442818h3.776c10.737552 0 19.442818-8.705266 19.442818-19.442818v-65.880453h151.203724c10.737552 0 19.442818 8.705266 19.442818 19.442818v151.203723zM190.149734 639.983883h131.760907c10.737552 0 19.442818-8.705266 19.442817-19.442818v-131.760906c0-10.737552-8.705266-19.442818-19.442817-19.442818h-131.760907c-10.737552 0-19.442818 8.705266-19.442817 19.442818v131.760906c0 10.738575 8.705266 19.442818 19.442817 19.442818z m23.218818-108.542089c0-10.737552 8.705266-19.442818 19.442818-19.442817h46.437635c10.737552 0 19.442818 8.705266 19.442818 19.442817v46.437636c0 10.737552-8.705266 19.442818-19.442818 19.442818h-46.437635c-10.737552 0-19.442818-8.705266-19.442818-19.442818v-46.437636zM446.119547 639.983883h131.760906c10.737552 0 19.442818-8.705266 19.442818-19.442818v-131.760906c0-10.737552-8.705266-19.442818-19.442818-19.442818h-131.760906c-10.737552 0-19.442818 8.705266-19.442818 19.442818v131.760906c0 10.738575 8.705266 19.442818 19.442818 19.442818z m23.218818-108.542089c0-10.737552 8.705266-19.442818 19.442817-19.442817h46.437636c10.737552 0 19.442818 8.705266 19.442817 19.442817v46.437636c0 10.737552-8.705266 19.442818-19.442817 19.442818h-46.437636c-10.737552 0-19.442818-8.705266-19.442817-19.442818v-46.437636zM702.089359 639.983883h131.760907c10.737552 0 19.442818-8.705266 19.442817-19.442818v-131.760906c0-10.737552-8.705266-19.442818-19.442817-19.442818h-131.760907c-10.737552 0-19.442818 8.705266-19.442817 19.442818v131.760906c0 10.738575 8.705266 19.442818 19.442817 19.442818z m23.218818-108.542089c0-10.737552 8.705266-19.442818 19.442818-19.442817h46.437635c10.737552 0 19.442818 8.705266 19.442818 19.442817v46.437636c0 10.737552-8.705266 19.442818-19.442818 19.442818h-46.437635c-10.737552 0-19.442818-8.705266-19.442818-19.442818v-46.437636zM190.149734 853.29206h131.760907c10.737552 0 19.442818-8.705266 19.442817-19.442818v-131.760906c0-10.737552-8.705266-19.442818-19.442817-19.442818h-131.760907c-10.737552 0-19.442818 8.705266-19.442817 19.442818v131.760906c0 10.738575 8.705266 19.442818 19.442817 19.442818z m23.218818-108.542088c0-10.737552 8.705266-19.442818 19.442818-19.442818h46.437635c10.737552 0 19.442818 8.705266 19.442818 19.442818v46.437635c0 10.737552-8.705266 19.442818-19.442818 19.442818h-46.437635c-10.737552 0-19.442818-8.705266-19.442818-19.442818v-46.437635zM446.119547 853.29206h131.760906c10.737552 0 19.442818-8.705266 19.442818-19.442818v-131.760906c0-10.737552-8.705266-19.442818-19.442818-19.442818h-131.760906c-10.737552 0-19.442818 8.705266-19.442818 19.442818v131.760906c0 10.738575 8.705266 19.442818 19.442818 19.442818z m23.218818-108.542088c0-10.737552 8.705266-19.442818 19.442817-19.442818h46.437636c10.737552 0 19.442818 8.705266 19.442817 19.442818v46.437635c0 10.737552-8.705266 19.442818-19.442817 19.442818h-46.437636c-10.737552 0-19.442818-8.705266-19.442817-19.442818v-46.437635zM702.089359 853.29206h131.760907c10.737552 0 19.442818-8.705266 19.442817-19.442818v-131.760906c0-10.737552-8.705266-19.442818-19.442817-19.442818h-131.760907c-10.737552 0-19.442818 8.705266-19.442817 19.442818v131.760906c0 10.738575 8.705266 19.442818 19.442817 19.442818z m23.218818-108.542088c0-10.737552 8.705266-19.442818 19.442818-19.442818h46.437635c10.737552 0 19.442818 8.705266 19.442818 19.442818v46.437635c0 10.737552-8.705266 19.442818-19.442818 19.442818h-46.437635c-10.737552 0-19.442818-8.705266-19.442818-19.442818v-46.437635z" /></svg>