<?xml version="1.0" standalone="no"?><!DOCTYPE svg PUBLIC "-//W3C//DTD SVG 1.1//EN" "http://www.w3.org/Graphics/SVG/1.1/DTD/svg11.dtd"><svg class="icon" width="200px" height="200.00px" viewBox="0 0 1024 1024" version="1.1" xmlns="http://www.w3.org/2000/svg"><path fill="#333333" d="M162.761967 706.738239 162.761967 410.937257c0-191.97122 157.158343-349.026208 349.238033-349.026208 191.674461 0 349.238033 157.459195 349.238033 349.026208l0 269.27791c0 63.333444-35.908838 119.743198-86.169545 161.728428-56.492642 47.208185-132.174322 76.626191-194.393385 76.626191l-93.369527 0c-12.05557 0-24.111141 0-24.111141-24.096814 0-24.096814 12.054547-24.096814 24.111141-24.096814l93.369527 0c51.6698 0 115.295909-25.084305 163.502841-65.323774 40.129976-33.55728 68.822458-77.321016 68.822458-124.837216L813.000402 410.93828c0-165.011194-135.863341-300.81416-300.966633-300.81416-165.541267 0-300.983006 135.366014-300.983006 300.81416L211.050764 706.739263c0 12.04943 0 24.097838-24.127514 24.097838C162.79676 730.8371 162.762991 718.78767 162.761967 706.738239L162.761967 706.738239zM137.130194 373.658212l93.320409 0c22.298865 0 40.518832 18.258852 40.518832 40.497343l0 282.70164c0 22.237467-18.269086 40.497343-40.518832 40.497343l-93.320409 0c-22.249747-0.001023-40.518832-18.228153-40.518832-40.498366L96.611361 414.155555C96.593965 391.901715 114.847701 373.658212 137.130194 373.658212L137.130194 373.658212zM886.853433 373.658212l-93.305059 0c-22.297842 0-40.567951 18.258852-40.567951 40.497343l0 282.70164c0 22.237467 18.253736 40.497343 40.567951 40.497343l93.305059 0c22.282492 0 40.535205-18.22713 40.535205-40.497343L927.388639 414.155555C927.388639 391.901715 909.104203 373.658212 886.853433 373.658212L886.853433 373.658212zM442.741613 852.603375l81.378425 0c28.853142 0 52.461839 23.595394 52.461839 52.399417l0 0c0 28.820396-23.608697 52.400441-52.461839 52.400441l-81.378425 0c-28.852118 0-52.430116-23.580045-52.430116-52.400441l0 0C390.311497 876.198769 413.889495 852.603375 442.741613 852.603375L442.741613 852.603375zM628.834962 428.128801c24.076348 0 43.706431 19.618826 43.706431 43.667545s-19.629059 43.682895-43.706431 43.682895c-24.047696 0-43.674709-19.617803-43.674709-43.682895C585.158207 447.731254 604.787266 428.128801 628.834962 428.128801L628.834962 428.128801zM395.150712 428.128801c24.062022 0 43.706431 19.618826 43.706431 43.667545s-19.629059 43.682895-43.706431 43.682895c-24.079418 0-43.691081-19.617803-43.691081-43.682895C351.45963 447.731254 371.071294 428.128801 395.150712 428.128801M419.472654 684.776042c46.263673 46.222741 138.79102 46.222741 185.023994 0 17.605983-17.59575 42.379203 7.084349 24.708751 24.697495-58.628282 58.59349-175.866427 58.59349-234.443543 0C377.140523 691.860391 401.833925 667.149593 419.472654 684.776042L419.472654 684.776042" /></svg>