<?xml version="1.0" standalone="no"?><!DOCTYPE svg PUBLIC "-//W3C//DTD SVG 1.1//EN" "http://www.w3.org/Graphics/SVG/1.1/DTD/svg11.dtd"><svg class="icon" width="200px" height="190.51px" viewBox="0 0 1075 1024" version="1.1" xmlns="http://www.w3.org/2000/svg"><path fill="#333333" d="M706.170002 961.051007a99.862424 99.862424 0 0 1-104.498895-104.677219v-146.048796h-91.481113v146.048796a100.219076 100.219076 0 0 1-104.67722 104.677219h-150.328614a100.04075 100.04075 0 0 1-104.498895-104.677219V560.353029a98.079167 98.079167 0 0 1-54.389356-14.979363c-6.241402-4.458144-36.735106-27.462167-43.511485-58.312523a114.841788 114.841788 0 0 1 30.850356-104.855546l3.031538-3.031538L479.339637 30.725528a110.740296 110.740296 0 0 1 154.073455 1.069955L1027.691343 382.027271c33.346917 33.881894 42.084879 75.431796 24.608955 116.625046a90.589485 90.589485 0 0 1-40.836599 46.186371 123.401425 123.401425 0 0 1-50.287864 14.622712V856.373788a100.04075 100.04075 0 0 1-104.498894 104.677219H706.170002z m-75.25347-309.39519c16.40597 0 29.602076 13.01778 29.602076 29.42375v175.294221c0 29.42375 16.049318 45.82972 45.651394 45.829719h150.506939c29.245424 0 45.651394-16.40597 45.651394-45.829719V530.750953c0-16.049318 13.196106-29.42375 29.245425-29.42375h12.482803a75.25347 75.25347 0 0 0 36.378454-7.489681c7.489682-4.279818 10.699545-9.272939 14.087735-17.832576 9.451265-22.469046 4.993121-37.626735-15.336015-52.249447l-1.783258-1.426606v-3.744841L593.468123 74.77199a54.746008 54.746008 0 0 0-37.805061-15.336015 52.071121 52.071121 0 0 0-36.378455 14.622712L127.146265 421.972241a56.885917 56.885917 0 0 0-16.940947 52.249447c0.891629 4.101492 8.916288 14.979364 20.150811 23.004023 6.063076 4.101492 24.78728 4.101492 32.81194 4.101492h16.940947c16.40597 0 29.602076 13.374432 29.602075 29.958728V856.373788c0 29.42375 16.227644 45.82972 45.651394 45.829719h150.328614c29.602076 0 45.82972-16.40597 45.82972-45.829719v-175.294221c0-16.40597 13.196106-29.42375 29.42375-29.42375h149.971963z" /></svg>