<?xml version="1.0" encoding="utf-8"?>
<!-- Generator: Adobe Illustrator 22.1.0, SVG Export Plug-In . SVG Version: 6.00 Build 0)  -->
<svg version="1.1" id="图层_1" xmlns="http://www.w3.org/2000/svg" xmlns:xlink="http://www.w3.org/1999/xlink" x="0px" y="0px"
	 viewBox="0 0 48 48" style="enable-background:new 0 0 48 48;" xml:space="preserve">
<style type="text/css">
	.st0{fill:#FFFFFF;}
	.st1{clip-path:url(#SVGID_2_);fill:#FBFBFB;}
</style>
<path class="st0" d="M48,24C48,10.7,37.3,0,24,0S0,10.7,0,24s10.7,24,24,24S48,37.3,48,24z M2.2,24C2.2,11.9,11.9,2.2,24,2.2
	S45.8,11.9,45.8,24S36.1,45.8,24,45.8S2.2,36.1,2.2,24z"/>
<g>
	<g>
		<defs>
			<rect id="SVGID_1_" x="10.4" y="9.4" width="26.1" height="27.8"/>
		</defs>
		<clipPath id="SVGID_2_">
			<use xlink:href="#SVGID_1_"  style="overflow:visible;"/>
		</clipPath>
		<path class="st1" d="M18.8,26.1c-0.5,0-1,0-1.5-0.1c-3.7-0.7-6.5-3.7-6.9-7.5c-0.3-3.8,1.9-7.3,5.5-8.6c3.5-1.3,7.5,0,9.7,3.1
			c1.8,2.5,2,5.9,0.6,8.6C24.7,24.4,21.9,26.1,18.8,26.1L18.8,26.1z M18.8,11.2c-3,0-5.6,2.1-6.3,5c-0.7,2.9,0.7,5.9,3.3,7.3
			c2.7,1.4,5.9,0.8,7.9-1.5c2-2.3,2.2-5.6,0.4-8C22.9,12.2,20.9,11.2,18.8,11.2L18.8,11.2z M18.8,11.2"/>
	</g>
	<path class="st0" d="M21.7,23.9l1.7-1.2L32.6,36l-1.7,1.2L21.7,23.9z M21.7,23.9"/>
	<path class="st0" d="M26.6,30l4.5-3.4l1.1,1.7l-4.5,3.4L26.6,30z M30.3,35.4l5.1-3.8l1.1,1.7l-5.1,3.8L30.3,35.4z M30.3,35.4"/>
	<path class="st0" d="M15.5,16.1c0.4,0.5,0.9,0.8,1.6,0.7c0.6-0.1,1.1-0.4,1.4-1c0.3-0.6,0.2-1.2-0.1-1.7c-0.4-0.5-0.9-0.8-1.6-0.7
		c-0.6,0.1-1.1,0.4-1.4,1C15.1,14.9,15.1,15.6,15.5,16.1L15.5,16.1z M15.5,16.1"/>
</g>
</svg>
