<?xml version="1.0" standalone="no"?><!DOCTYPE svg PUBLIC "-//W3C//DTD SVG 1.1//EN" "http://www.w3.org/Graphics/SVG/1.1/DTD/svg11.dtd"><svg class="icon" width="48px" height="48.00px" viewBox="0 0 1024 1024" version="1.1" xmlns="http://www.w3.org/2000/svg"><path d="M861.090909 372.363636 861.090909 325.818182 512 535.272727 162.909091 325.818182 162.909091 372.363636 512 581.818182Z" fill="#ffffff" /><path d="M659.409455 559.476364 835.630545 707.956364 858.484364 660.805818 702.277818 535.272727Z" fill="#ffffff" /><path d="M1024 512c0-282.763636-229.236364-512-512-512C229.236364 0 0 229.236364 0 512c0 282.763636 229.236364 512 512 512C794.763636 1024 1024 794.763636 1024 512zM46.545455 512C46.545455 254.929455 254.929455 46.545455 512 46.545455c257.070545 0 465.454545 208.384 465.454545 465.454545s-208.384 465.454545-465.454545 465.454545C254.929455 977.454545 46.545455 769.070545 46.545455 512z" fill="#ffffff" /><path d="M147.409455 651.310545 170.263273 698.507636 346.484364 549.981091 303.616 525.777455Z" fill="#ffffff" /></svg>